<mxfile host="app.diagrams.net" modified="2023-02-08T07:04:05.431Z" agent="5.0 (Windows NT 10.0; Win64; x64) AppleWebKit/537.36 (KHTML, like Gecko) Chrome/109.0.0.0 Safari/537.36" etag="n3faQLqu443ZqC4Z18q0" version="20.8.17" type="github">
  <diagram name="第 1 页" id="COBLcJ0LT-olS0wrmNDJ">
    <mxGraphModel dx="1221" dy="751" grid="1" gridSize="10" guides="1" tooltips="1" connect="1" arrows="1" fold="1" page="1" pageScale="1" pageWidth="827" pageHeight="1169" math="0" shadow="0">
      <root>
        <mxCell id="0" />
        <mxCell id="1" parent="0" />
        <mxCell id="Apt4ry8EaHQmiZPTNeO6-1" value="&lt;font style=&quot;font-size: 15px;&quot;&gt;分布式事务&lt;/font&gt;" style="rounded=0;whiteSpace=wrap;html=1;fillColor=#dae8fc;strokeColor=#6c8ebf;" vertex="1" parent="1">
          <mxGeometry x="100" y="100" width="640" height="60" as="geometry" />
        </mxCell>
        <mxCell id="Apt4ry8EaHQmiZPTNeO6-6" value="" style="edgeStyle=orthogonalEdgeStyle;rounded=0;orthogonalLoop=1;jettySize=auto;html=1;fontSize=15;" edge="1" parent="1" source="Apt4ry8EaHQmiZPTNeO6-2" target="Apt4ry8EaHQmiZPTNeO6-5">
          <mxGeometry relative="1" as="geometry" />
        </mxCell>
        <mxCell id="Apt4ry8EaHQmiZPTNeO6-2" value="2PC（Two Phase Commit&lt;br&gt;）" style="ellipse;whiteSpace=wrap;html=1;fontSize=15;" vertex="1" parent="1">
          <mxGeometry x="100" y="220" width="210" height="60" as="geometry" />
        </mxCell>
        <mxCell id="Apt4ry8EaHQmiZPTNeO6-9" style="edgeStyle=orthogonalEdgeStyle;rounded=0;orthogonalLoop=1;jettySize=auto;html=1;fontSize=15;" edge="1" parent="1" source="Apt4ry8EaHQmiZPTNeO6-3" target="Apt4ry8EaHQmiZPTNeO6-8">
          <mxGeometry relative="1" as="geometry" />
        </mxCell>
        <mxCell id="Apt4ry8EaHQmiZPTNeO6-3" value="TCC（Try-Confirm-Cancel&lt;br&gt;）" style="ellipse;whiteSpace=wrap;html=1;fontSize=15;" vertex="1" parent="1">
          <mxGeometry x="90" y="330" width="240" height="60" as="geometry" />
        </mxCell>
        <mxCell id="Apt4ry8EaHQmiZPTNeO6-5" value="准备阶段 prepare&lt;br&gt;提交阶段 commit" style="whiteSpace=wrap;html=1;fontSize=15;" vertex="1" parent="1">
          <mxGeometry x="460" y="220" width="240" height="60" as="geometry" />
        </mxCell>
        <mxCell id="Apt4ry8EaHQmiZPTNeO6-7" style="edgeStyle=orthogonalEdgeStyle;rounded=0;orthogonalLoop=1;jettySize=auto;html=1;exitX=0.5;exitY=1;exitDx=0;exitDy=0;fontSize=15;" edge="1" parent="1" source="Apt4ry8EaHQmiZPTNeO6-5" target="Apt4ry8EaHQmiZPTNeO6-5">
          <mxGeometry relative="1" as="geometry" />
        </mxCell>
        <mxCell id="Apt4ry8EaHQmiZPTNeO6-8" value="try、confirm/cancel两个阶段执行" style="whiteSpace=wrap;html=1;fontSize=15;" vertex="1" parent="1">
          <mxGeometry x="460" y="330" width="240" height="60" as="geometry" />
        </mxCell>
      </root>
    </mxGraphModel>
  </diagram>
</mxfile>
